<svg width="16" height="17" viewBox="0 0 16 17" fill="none" xmlns="http://www.w3.org/2000/svg">
<path d="M4.00004 4.49998H9.33337M4.00004 7.16665H12M8.66671 9.83331H12M8.66671 12.5H12M1.33337 14.7666V2.23331C1.33337 2.12723 1.37552 2.02548 1.45053 1.95047C1.52555 1.87546 1.62729 1.83331 1.73337 1.83331H12.168C12.2741 1.83341 12.3758 1.87561 12.4507 1.95065L14.5494 4.04931C14.5867 4.08658 14.6163 4.13086 14.6364 4.1796C14.6565 4.22834 14.6668 4.28058 14.6667 4.33331V14.7666C14.6667 14.8192 14.6564 14.8712 14.6363 14.9197C14.6162 14.9682 14.5867 15.0123 14.5496 15.0495C14.5124 15.0866 14.4683 15.1161 14.4198 15.1362C14.3713 15.1563 14.3192 15.1666 14.2667 15.1666H1.73337C1.68085 15.1666 1.62883 15.1563 1.5803 15.1362C1.53177 15.1161 1.48767 15.0866 1.45053 15.0495C1.41339 15.0123 1.38392 14.9682 1.36382 14.9197C1.34372 14.8712 1.33337 14.8192 1.33337 14.7666Z" stroke="#8C8C8C" stroke-linecap="round" stroke-linejoin="round"/>
<path d="M12 1.83331V4.09998C12 4.15251 12.0103 4.20452 12.0304 4.25305C12.0505 4.30158 12.08 4.34568 12.1172 4.38282C12.1543 4.41997 12.1984 4.44943 12.2469 4.46953C12.2955 4.48963 12.3475 4.49998 12.4 4.49998H14.6667" stroke="#8C8C8C" stroke-linecap="round" stroke-linejoin="round"/>
<path d="M4 9.83331V12.5H6V9.83331H4Z" fill="#8C8C8C" stroke="#8C8C8C" stroke-linecap="round" stroke-linejoin="round"/>
</svg>
