<svg width="25" height="24" viewBox="0 0 25 24" fill="none" xmlns="http://www.w3.org/2000/svg">
<path d="M6.5 5.06631C6.49974 5.59674 6.28877 6.10534 5.91351 6.48023C5.53825 6.85511 5.02943 7.06557 4.499 7.06531C3.96857 7.06504 3.45996 6.85407 3.08508 6.47881C2.71019 6.10355 2.49974 5.59474 2.5 5.06431C2.50027 4.53387 2.71123 4.02527 3.08649 3.65039C3.46175 3.2755 3.97057 3.06504 4.501 3.06531C5.03143 3.06557 5.54004 3.27654 5.91492 3.6518C6.28981 4.02706 6.50027 4.53587 6.5 5.06631ZM6.56 8.54631H2.56V21.0663H6.56V8.54631ZM12.88 8.54631H8.9V21.0663H12.84V14.4963C12.84 10.8363 17.61 10.4963 17.61 14.4963V21.0663H21.56V13.1363C21.56 6.96631 14.5 7.19631 12.84 10.2263L12.88 8.54631Z" fill="white"/>
</svg>
