<svg width="148" height="24" fill="none" xmlns="http://www.w3.org/2000/svg"><path fill="#D8F34E" d="M23.335 10.413v3.172H0v-3.172z"/><path fill="#D8F34E" d="M13.277 23.5h-3.219V.5h3.22z"/><path fill="#D8F34E" d="m21.057 19.01-2.276 2.244L2.28 4.99l2.276-2.243z"/><path fill="#D8F34E" d="M4.555 21.253 2.278 19.01l16.5-16.264 2.277 2.244z"/><path d="M134.62 21.036V1.486h3.246v7.568h.48c.151-.316.395-.633.734-.95.339-.316.781-.577 1.327-.781.564-.205 1.27-.308 2.117-.308 1.072 0 2.023.243 2.851.727a4.778 4.778 0 0 1 1.919 1.983c.471.856.706 1.87.706 3.044v8.267h-3.246V13.02c0-1.117-.282-1.946-.847-2.486-.546-.558-1.327-.837-2.343-.837-1.148 0-2.051.381-2.71 1.145-.658.744-.988 1.815-.988 3.211v6.983h-3.246ZM124.519 21.427c-1.355 0-2.578-.28-3.67-.838a6.37 6.37 0 0 1-2.597-2.43c-.621-1.061-.931-2.337-.931-3.826v-.391c0-1.49.31-2.765.931-3.826a6.37 6.37 0 0 1 2.597-2.43c1.092-.559 2.315-.838 3.67-.838 1.336 0 2.474.233 3.415.698.96.466 1.732 1.108 2.315 1.927.583.8.96 1.704 1.129 2.71l-3.133.642a3.97 3.97 0 0 0-.537-1.564 2.984 2.984 0 0 0-1.213-1.145c-.508-.28-1.139-.42-1.892-.42-.771 0-1.467.168-2.088.503-.603.317-1.082.801-1.44 1.453-.339.651-.508 1.433-.508 2.346v.279c0 .912.169 1.694.508 2.346a3.704 3.704 0 0 0 1.44 1.452c.621.335 1.317.503 2.088.503 1.148 0 2.014-.289 2.597-.866.603-.596.979-1.359 1.129-2.29l3.134.726a7.27 7.27 0 0 1-1.214 2.653c-.583.801-1.355 1.443-2.315 1.927-.941.466-2.079.699-3.415.699ZM107.976 21.427c-1.392 0-2.625-.289-3.698-.866a6.48 6.48 0 0 1-2.484-2.486c-.583-1.08-.875-2.336-.875-3.77v-.335c0-1.453.292-2.71.875-3.77a6.091 6.091 0 0 1 2.456-2.458c1.054-.596 2.268-.894 3.641-.894 1.355 0 2.541.298 3.557.894a6.001 6.001 0 0 1 2.371 2.457c.565 1.062.847 2.3.847 3.715v1.145h-10.472c.037 1.08.423 1.946 1.157 2.597.734.652 1.637.978 2.71.978 1.054 0 1.835-.224 2.343-.67a4.837 4.837 0 0 0 1.157-1.564l2.682 1.368c-.264.503-.65 1.043-1.158 1.62-.489.558-1.148 1.042-1.976 1.452-.828.391-1.872.587-3.133.587Zm-3.754-8.798h7.141c-.075-.912-.432-1.638-1.072-2.178-.621-.54-1.43-.81-2.428-.81-1.035 0-1.863.27-2.484.81s-1.007 1.266-1.157 2.178ZM94.499 21.036c-.903 0-1.628-.261-2.173-.782-.527-.54-.79-1.267-.79-2.179V9.892h-3.642V7.24h3.641v-4.44h3.246v4.44h4.008v2.653h-4.008v7.652c0 .56.264.838.79.838h2.795v2.654H94.5ZM77.42 15.338v-2.876h8.356v2.876H77.42ZM67.455 21.427c-1.393 0-2.625-.289-3.698-.866a6.468 6.468 0 0 1-2.484-2.486c-.583-1.08-.875-2.336-.875-3.77v-.335c0-1.453.292-2.71.875-3.77a6.087 6.087 0 0 1 2.456-2.458c1.054-.596 2.267-.894 3.641-.894 1.355 0 2.54.298 3.557.894a6.003 6.003 0 0 1 2.37 2.457c.565 1.062.848 2.3.848 3.715v1.145H63.672c.038 1.08.424 1.946 1.158 2.597.734.652 1.637.978 2.71.978 1.053 0 1.834-.224 2.342-.67A4.844 4.844 0 0 0 71.04 16.4l2.681 1.368c-.263.503-.649 1.043-1.157 1.62-.49.558-1.148 1.042-1.976 1.452-.828.391-1.872.587-3.133.587ZM63.7 12.629h7.141c-.075-.912-.433-1.638-1.073-2.178-.62-.54-1.43-.81-2.427-.81-1.035 0-1.863.27-2.484.81s-1.007 1.266-1.157 2.178ZM53.978 21.036c-.904 0-1.628-.261-2.174-.782-.527-.54-.79-1.267-.79-2.179V9.892h-3.642V7.24h3.642v-4.44h3.246v4.44h4.008v2.653H54.26v7.652c0 .56.263.838.79.838h2.795v2.654h-3.867ZM41.31 21.036V7.239h3.247v13.797h-3.246Zm1.61-15.557a2.263 2.263 0 0 1-1.524-.558c-.414-.391-.621-.903-.621-1.536s.207-1.136.62-1.508a2.2 2.2 0 0 1 1.525-.587c.62 0 1.129.196 1.524.587.414.372.621.875.621 1.508s-.207 1.145-.62 1.536c-.396.372-.904.558-1.525.558ZM33.95 21.036V1.486h3.247v19.55h-3.246Z" fill="#fff"/></svg>